# Blender 4.2.2 LTS
# www.blender.org
mtllib raytracing_model.mtl
g Cube_Cube
v 12.791112 5.287201 -9.480330
v 15.008894 -1.000000 -10.510777
v 12.791112 5.287201 9.480330
v 15.008894 -1.000000 10.510777
v -12.791112 5.287201 -9.480330
v -15.008894 -1.000000 -10.510777
v -12.791112 5.287201 9.480330
v -15.008894 -1.000000 10.510777
v 15.008894 5.287201 10.510777
v -15.008894 5.287201 10.510777
v 15.008894 5.287201 -10.510777
v -15.008894 5.287201 -10.510777
v 12.791112 -0.589331 -9.480330
v 12.791112 -0.589331 9.480330
v -12.791112 -0.589331 -9.480330
v -12.791112 -0.589331 9.480330
vn 1.0000 -0.0000 -0.0000
vn -0.0000 -0.0000 1.0000
vn -1.0000 -0.0000 -0.0000
vn -0.0000 -1.0000 -0.0000
vn -0.0000 -0.0000 -1.0000
vn -0.0000 1.0000 -0.0000
vt 0.856529 0.512255
vt 0.856529 0.737745
vt 0.375000 0.750000
vt 0.625000 0.750000
vt 0.625000 1.000000
vt 0.375000 1.000000
vt 0.375000 0.000000
vt 0.625000 0.000000
vt 0.625000 0.250000
vt 0.375000 0.250000
vt 0.125000 0.500000
vt 0.375000 0.500000
vt 0.125000 0.750000
vt 0.625000 0.500000
vt 0.643471 0.737745
vt 0.875000 0.750000
vt 0.643471 0.512255
vt 0.875000 0.500000
s 0
g Cube_Material
usemtl Material
f 5/1/1 7/2/1 16/2/1 15/1/1
f 4/3/2 9/4/2 10/5/2 8/6/2
f 8/7/3 10/8/3 12/9/3 6/10/3
f 6/11/4 2/12/4 4/3/4 8/13/4
f 2/12/1 11/14/1 9/4/1 4/3/1
f 6/10/5 12/9/5 11/14/5 2/12/5
f 3/15/6 7/2/6 10/16/6 9/4/6
f 1/17/6 3/15/6 9/4/6 11/14/6
f 7/2/6 5/1/6 12/18/6 10/16/6
f 5/1/6 1/17/6 11/14/6 12/18/6
f 13/17/6 15/1/6 16/2/6 14/15/6
f 7/2/5 3/15/5 14/15/5 16/2/5
f 1/17/2 5/1/2 15/1/2 13/17/2
f 3/15/3 1/17/3 13/17/3 14/15/3
