# Blender 3.5.1
# www.blender.org
mtllib space_ship_model.mtl
o Cube
v 5.750000 -3.000000 3.000000
v 5.750000 -3.000000 2.500000
v 6.750000 -3.000000 6.500000
v 6.750000 -4.000000 6.500000
v -5.750000 -3.000000 3.000000
v -5.750000 -3.000000 2.500000
v -6.750000 -3.000000 6.500000
v -6.750000 -4.000000 6.500000
v -1.750000 -1.000000 -5.000000
v -0.500000 0.000000 3.000000
v -0.500000 1.500000 3.000000
v -0.500000 1.500000 0.000000
v -1.000000 -1.000000 1.000000
v -1.000000 1.000000 1.000000
v 1.750000 -1.000000 -5.000000
v 0.500000 0.000000 3.000000
v 0.500000 1.500000 3.000000
v -1.750000 0.000000 -1.500000
v -1.000000 1.000000 -1.000000
v -1.000000 -1.000000 -8.250000
v -6.750000 -3.000000 5.250000
v -6.750000 -4.000000 2.250000
v 0.500000 1.500000 0.000000
v 1.000000 -1.000000 1.000000
v 1.000000 1.000000 1.000000
v 1.750000 0.000000 -1.500000
v 1.000000 1.000000 -1.000000
v 1.000000 -1.000000 -8.250000
v 6.750000 -3.000000 5.250000
v 6.750000 -4.000000 2.250000
vn -1.0000 -0.0000 -0.0000
vn -0.4626 -0.8866 -0.0000
vn 0.9701 -0.0000 0.2425
vn 0.4626 -0.8866 -0.0000
vn 0.6912 -0.0000 0.7226
vn -0.6963 0.6963 -0.1741
vn -0.5711 0.8209 -0.0000
vn -0.9701 -0.0000 0.2425
vn -0.6912 -0.0000 0.7226
vn 0.5711 0.8209 -0.0000
vn -0.7071 0.7071 -0.0000
vn 0.6963 0.6963 -0.1741
vn -0.7503 0.6368 -0.1777
vn -0.6028 0.7672 -0.2192
vn -0.6680 0.7268 -0.1599
vn -0.7467 0.6005 -0.2862
vn -0.0000 0.8944 -0.4472
vn 1.0000 -0.0000 -0.0000
vn 0.7071 0.7071 -0.0000
vn 0.7503 0.6368 -0.1777
vn 0.6028 0.7672 -0.2192
vn 0.6680 0.7268 -0.1599
vn 0.7467 0.6005 -0.2862
vn -0.0000 0.9640 -0.2659
vn -0.0000 -0.0000 1.0000
vn -0.0000 1.0000 -0.0000
vn -0.0000 -1.0000 -0.0000
vn -0.0000 -0.8944 0.4472
vt 0.516082 0.187550
vt 0.498151 0.190697
vt 0.551764 0.049620
vt 0.448236 0.032189
vt 0.516082 0.187550
vt 0.498151 0.190697
vt 0.551764 0.049620
vt 0.448236 0.032189
vt 0.446733 0.240554
vt 0.393731 0.981269
vt 0.856269 0.750000
vt 0.625000 0.981269
vt 0.856269 0.518731
vt 0.375000 1.000000
vt 0.375000 0.000000
vt 0.625000 0.000000
vt 0.625000 1.000000
vt 0.875000 0.750000
vt 0.446733 0.240554
vt 0.393731 0.981269
vt 0.625000 0.981269
vt 0.856269 0.750000
vt 0.567500 0.239509
vt 0.875000 0.500000
vt 0.625000 0.250000
vt 0.375000 0.250000
vt 0.551764 0.166593
vt 0.448236 0.188889
vt 0.856269 0.518731
vt 0.375000 0.000000
vt 0.375000 1.000000
vt 0.625000 1.000000
vt 0.625000 0.000000
vt 0.875000 0.750000
vt 0.567500 0.239509
vt 0.875000 0.500000
vt 0.625000 0.250000
vt 0.375000 0.250000
vt 0.551764 0.166593
vt 0.448236 0.188889
s 0
usemtl Material
f 8/8/1 7/7/1 21/27/1 22/28/1
f 4/4/2 24/30/2 28/38/2 30/40/2
f 16/20/3 24/31/3 25/32/3 17/21/3
f 8/8/4 22/28/4 20/26/4 13/15/4
f 7/7/5 8/8/5 13/15/5 14/16/5
f 6/6/6 5/5/6 18/23/6 9/9/6
f 21/27/7 7/7/7 14/16/7 19/25/7
f 10/10/8 11/12/8 14/17/8 13/14/8
f 3/3/9 25/33/9 24/30/9 4/4/9
f 29/39/10 27/37/10 25/33/10 3/3/10
f 11/11/11 12/13/11 19/24/11 14/18/11
f 2/2/12 15/19/12 26/35/12 1/1/12
f 9/9/13 18/23/13 19/25/13 20/26/13
f 5/5/14 6/6/14 22/28/14 21/27/14
f 6/6/15 9/9/15 20/26/15 22/28/15
f 18/23/16 5/5/16 21/27/16 19/25/16
f 19/25/17 12/13/17 23/29/17 27/37/17
f 4/4/18 30/40/18 29/39/18 3/3/18
f 17/22/19 25/34/19 27/36/19 23/29/19
f 15/19/20 28/38/20 27/37/20 26/35/20
f 1/1/21 29/39/21 30/40/21 2/2/21
f 2/2/22 30/40/22 28/38/22 15/19/22
f 26/35/23 27/37/23 29/39/23 1/1/23
f 20/26/24 19/25/24 27/37/24 28/38/24
f 17/21/25 11/12/25 10/10/25 16/20/25
f 12/13/26 11/12/26 17/22/26 23/29/26
f 13/15/27 20/26/27 28/38/27 24/30/27
f 10/10/28 13/15/28 24/31/28 16/20/28
